# 3ds Max Wavefront OBJ Exporter v0.97b - (c)2007 guruware
# File Created: 22.08.2017 23:25:27

mtllib ???\??\???.mtl

#
# object Box001
#

v  3.3637 0.0000 15.4609
v  6.6430 0.0000 15.4609
v  6.6430 0.0000 20.6508
v  3.3637 0.0000 20.6508
v  6.6430 7.0060 20.6508
v  6.6430 7.0060 15.4609
v  3.3637 7.0060 15.4609
v  3.3637 7.0060 20.6508
v  6.6430 0.5000 26.9795
v  6.6430 6.5060 26.9795
v  3.3637 6.5060 29.2985
v  3.3637 0.5000 29.2985
v  17.6936 0.5000 14.7847
v  17.6936 6.5060 14.7847
v  17.6936 6.5060 19.2985
v  17.6936 0.5000 19.2985
v  9.6996 1.5000 -19.2985
v  9.6996 5.5060 -19.2985
v  16.6936 5.5060 -19.2985
v  16.6936 1.5000 -19.2985
v  3.3912 0.5000 -16.3188
v  3.3912 6.5060 -16.3188
v  3.3912 6.5060 -18.2985
v  3.3912 0.5000 -18.2985
v  9.6996 0.5000 -18.2985
v  9.6996 0.5000 -16.3188
v  6.6430 0.5000 -16.3188
v  6.6430 0.5000 -18.2985
v  9.6996 7.0060 19.2985
v  9.6996 7.0060 14.7847
v  9.6996 0.5000 19.2985
v  9.6996 6.5060 19.2985
v  6.6430 6.5060 20.6508
v  6.6430 0.5000 20.6508
v  6.6430 1.5000 -19.2985
v  6.6430 5.5060 -19.2985
v  17.6936 0.5000 -18.2985
v  17.6936 0.5000 -16.3188
v  17.6936 7.0060 19.2985
v  17.6936 7.0060 14.7847
v  16.6936 1.5000 24.7311
v  16.6936 5.5060 24.7311
v  13.7397 5.5060 26.4904
v  13.7397 1.5000 26.4904
v  3.8918 0.7649 -0.1403
v  6.8818 0.7649 -0.1403
v  6.6430 0.5000 -0.0000
v  3.3637 0.5000 -0.0000
v  6.8818 6.2411 -0.1403
v  3.8918 6.2411 -0.1403
v  3.3637 6.5060 -0.0000
v  6.6430 6.5060 -0.0000
v  16.9576 0.7649 -0.1403
v  16.9576 6.2411 -0.1403
v  17.6936 6.5060 -0.0000
v  17.6936 0.5000 -0.0000
v  3.3637 0.5000 9.8043
v  3.3637 6.5060 9.8043
v  9.6996 0.5000 9.7995
v  6.6430 0.5000 9.8043
v  9.6996 0.5000 -0.0000
v  9.6688 6.2411 -0.1403
v  9.6996 6.5060 -0.0000
v  17.6936 0.5000 9.7995
v  3.3637 7.0060 29.2985
v  6.6430 7.0060 26.9795
v  3.3637 6.5060 20.6508
v  3.3637 0.5000 20.6508
v  6.6430 0.0000 26.9795
v  3.3637 0.0000 29.2985
v  16.6936 1.5000 19.2985
v  13.7397 1.5000 19.2985
v  16.6936 5.5060 19.2985
v  13.7397 5.5060 19.2985
v  3.3637 0.0000 9.8043
v  6.6430 0.0000 9.8043
v  6.6430 7.0060 9.8043
v  3.3637 7.0060 9.8043
v  17.6936 6.5060 9.7995
v  9.6996 7.0060 9.7995
v  9.6996 6.5060 9.7995
v  9.6996 6.5060 14.7847
v  3.3637 6.5060 15.4609
v  3.3637 0.5000 15.4609
v  9.6996 0.0000 19.2985
v  9.6996 0.0000 14.7847
v  17.6936 0.0000 19.2985
v  17.6936 0.0000 14.7847
v  9.6996 0.0000 9.7995
v  9.6996 0.5000 14.7847
v  3.3637 0.0000 -0.0000
v  6.6430 0.0000 -0.0000
v  6.6430 7.0060 -0.0000
v  3.3637 7.0060 -0.0000
v  6.6430 6.5060 9.8043
v  3.8918 0.7649 -4.6663
v  3.8918 6.2411 -4.6663
v  3.8912 6.5060 -4.8504
v  3.8912 0.5000 -4.8504
v  9.6688 0.7649 -4.6663
v  6.8818 0.7649 -4.6663
v  6.6430 0.5000 -4.8504
v  9.6996 0.5000 -4.8504
v  16.9576 0.7649 -4.6663
v  17.6936 0.5000 -4.8504
v  3.8912 0.5000 -7.3637
v  6.6430 0.5000 -7.3637
v  6.6430 6.5060 -7.3637
v  3.8912 6.5060 -7.3637
v  6.6430 6.5060 -4.8504
v  17.6936 0.5000 -7.3637
v  17.6936 6.5060 -7.3637
v  17.6936 6.5060 -4.8504
v  9.6996 7.0060 -7.3637
v  6.6430 7.0060 -7.3637
v  6.6430 7.0060 -4.8504
v  9.6996 7.0060 -4.8504
v  9.6996 6.5060 -7.3637
v  9.6996 6.5060 -4.8504
v  6.8818 6.2411 -4.6663
v  16.9576 6.2411 -4.6663
v  9.6688 6.2411 -4.6663
v  9.6688 0.7649 -0.1403
v  3.3912 0.5000 -4.8504
v  3.3912 6.5060 -4.8504
v  3.3912 6.5060 -7.3637
v  3.3912 0.5000 -7.3637
v  9.6996 0.5000 -7.3637
v  3.8912 0.5000 -8.7258
v  6.6430 0.5000 -8.7258
v  6.6430 6.5060 -8.7258
v  3.8912 6.5060 -8.7258
v  17.6936 0.5000 -8.7258
v  17.6936 6.5060 -8.7258
v  9.6996 6.5060 -8.7258
v  9.6996 0.5000 -8.7258
v  3.8912 0.5000 -10.3885
v  6.6430 0.5000 -10.3885
v  6.6430 7.0060 -10.3885
v  3.8912 7.0060 -10.3885
v  3.8912 7.0060 -8.7258
v  6.6430 7.0060 -8.7258
v  17.6936 0.5000 -10.3885
v  17.6936 6.5060 -10.3885
v  9.6996 6.5060 -10.3885
v  6.6430 6.5060 -10.3885
v  3.3912 0.5000 -8.7258
v  3.3912 6.5060 -8.7258
v  3.3912 6.5060 -10.3885
v  3.3912 0.5000 -10.3885
v  9.6996 0.5000 -10.3885
v  3.8912 0.5000 -11.8570
v  6.6430 0.5000 -11.8570
v  6.6430 6.5060 -11.8570
v  3.8912 6.5060 -11.8570
v  3.8912 6.5060 -10.3885
v  17.6936 0.5000 -11.8570
v  17.6936 6.5060 -11.8570
v  9.6996 6.5060 -11.8570
v  9.6996 0.5000 -11.8570
v  3.8912 0.5000 -13.4052
v  6.6430 0.5000 -13.4052
v  6.6430 7.0060 -13.4052
v  3.8912 7.0060 -13.4052
v  3.8912 7.0060 -11.8570
v  6.6430 7.0060 -11.8570
v  17.6936 0.5000 -13.4052
v  17.6936 6.5060 -13.4052
v  9.6996 7.0060 -13.4052
v  9.6996 7.0060 -11.8570
v  9.6996 6.5060 -13.4052
v  3.3912 0.5000 -11.8570
v  3.3912 6.5060 -11.8570
v  3.3912 6.5060 -13.4052
v  3.3912 0.5000 -13.4052
v  9.6996 0.5000 -13.4052
v  3.8912 0.5000 -14.6905
v  6.6430 0.5000 -14.6905
v  6.6430 6.5060 -14.6905
v  3.8912 6.5060 -14.6905
v  3.8912 6.5060 -13.4052
v  6.6430 6.5060 -13.4052
v  17.6936 0.5000 -14.6905
v  17.6936 6.5060 -14.6905
v  9.6996 6.5060 -14.6905
v  9.6996 0.5000 -14.6905
v  3.8912 0.5000 -16.3188
v  6.6430 7.0060 -16.3188
v  3.8912 7.0060 -16.3188
v  3.8912 7.0060 -14.6905
v  6.6430 7.0060 -14.6905
v  17.6936 6.5060 -16.3188
v  9.6996 7.0060 -16.3188
v  9.6996 7.0060 -14.6905
v  17.6936 7.0060 -16.3188
v  17.6936 7.0060 -14.6905
v  3.3912 7.0060 -16.3188
v  3.3912 7.0060 -14.6905
v  4.3912 1.5000 -19.2985
v  4.3912 5.5060 -19.2985
v  3.3912 6.5060 -14.6905
v  3.3912 0.5000 -14.6905
v  3.3912 7.0060 -10.3885
v  3.3912 7.0060 -8.7258
v  3.3912 7.0060 -13.4052
v  3.3912 7.0060 -11.8570
v  17.6936 6.5060 -18.2985
v  9.6996 6.5060 -18.2985
v  6.6430 6.5060 -18.2985
v  6.6430 6.5060 -16.3188
v  9.6996 6.5060 -16.3188
v  3.8912 6.5060 -16.3188
# 212 vertices

vn 0.0000 -1.0000 -0.0000
vn 0.0000 1.0000 -0.0000
vn 0.5774 0.0000 0.8165
vn 1.0000 0.0000 -0.0000
vn 0.0000 0.0000 -1.0000
vn -1.0000 0.0000 -0.0000
vn -1.0000 0.0000 0.0000
vn 0.4046 0.0000 0.9145
vn 0.5117 0.0000 0.8592
vn 0.0000 -0.7700 -0.6381
vn 0.0000 -0.8567 -0.5157
vn 0.0000 -0.7385 -0.6742
vn 0.0000 -0.4680 -0.8837
vn 0.0000 0.8567 -0.5157
vn 0.0000 0.7700 -0.6381
vn 0.0000 0.4680 -0.8837
vn 0.0000 0.7385 -0.6742
vn 0.7166 0.0000 -0.6974
vn 0.8303 0.0000 -0.5574
vn -0.8642 0.0000 -0.5031
vn 0.0000 -0.9815 -0.1915
vn 0.0000 0.7615 -0.6482
vn 0.0000 0.9815 -0.1915
vn 0.0000 0.0000 1.0000
vn -0.0016 0.0000 -1.0000
vn -1.0000 0.0000 0.0018
vn -1.0000 0.0000 0.0030
vn 0.0000 -0.8862 0.4633
vn 0.0000 -0.8129 0.5824
vn 0.0000 -0.9828 0.1845
vn 0.0000 -0.8863 0.4631
vn 0.0000 0.8863 0.4631
vn 0.0000 0.7935 0.6086
vn 0.8421 0.0000 0.5393
vn 0.0000 0.9828 0.1845
vn 0.0000 -0.8861 0.4636
vn 0.0000 0.8862 0.4633
vn 0.0000 0.8861 0.4636
vn 0.7397 0.0000 0.6729
vn 0.0000 0.8129 0.5824
vn -0.7304 0.0000 -0.6830
vn 0.0000 -0.7615 -0.6482
vn 0.0000 -0.7071 -0.7071
vn 0.0000 0.7071 -0.7071
vn 0.7071 0.0000 -0.7071
vn -0.0000 -0.7071 -0.7071
vn -0.7071 0.0000 -0.7071
# 47 vertex normals

vt 0.9771 0.8040 0.0000
vt 0.9412 0.8037 0.0000
vt 0.9416 0.7469 0.0000
vt 0.9775 0.7472 0.0000
vt 0.7590 0.6713 0.0000
vt 0.7591 0.7285 0.0000
vt 0.7232 0.7286 0.0000
vt 0.7231 0.6719 0.0000
vt 0.7654 0.1133 0.0000
vt 0.8312 0.1141 0.0000
vt 0.8306 0.1580 0.0000
vt 0.7649 0.1572 0.0000
vt 0.1116 0.6780 0.0000
vt 0.1116 0.7834 0.0000
vt 0.0324 0.7834 0.0000
vt 0.0324 0.6780 0.0000
vt 0.1484 0.3832 0.0000
vt 0.1484 0.4361 0.0000
vt 0.0559 0.4361 0.0000
vt 0.0559 0.3832 0.0000
vt 0.2635 0.3700 0.0000
vt 0.2635 0.4494 0.0000
vt 0.2373 0.4494 0.0000
vt 0.2373 0.3700 0.0000
vt 0.5946 0.3007 0.0000
vt 0.5946 0.2613 0.0000
vt 0.6555 0.2613 0.0000
vt 0.6555 0.3007 0.0000
vt 0.7928 0.6867 0.0000
vt 0.7926 0.7360 0.0000
vt 0.7667 0.0074 0.0000
vt 0.8324 0.0082 0.0000
vt 0.8320 0.0448 0.0000
vt 0.7662 0.0440 0.0000
vt 0.1888 0.3832 0.0000
vt 0.1888 0.4361 0.0000
vt 0.4352 0.3007 0.0000
vt 0.4352 0.2613 0.0000
vt 0.8803 0.6867 0.0000
vt 0.8802 0.7361 0.0000
vt 0.5770 0.8909 0.0000
vt 0.5221 0.8902 0.0000
vt 0.5227 0.8430 0.0000
vt 0.5777 0.8438 0.0000
vt 0.8825 0.5023 0.0000
vt 0.8828 0.5501 0.0000
vt 0.8782 0.5469 0.0000
vt 0.8756 0.5007 0.0000
vt 0.8887 0.3673 0.0000
vt 0.8853 0.4149 0.0000
vt 0.8783 0.4161 0.0000
vt 0.8839 0.3701 0.0000
vt 0.9060 0.1229 0.0000
vt 0.8997 0.2111 0.0000
vt 0.8918 0.2075 0.0000
vt 0.8976 0.1253 0.0000
vt 0.7623 0.3706 0.0000
vt 0.8280 0.3714 0.0000
vt 0.8267 0.4787 0.0000
vt 0.7610 0.4780 0.0000
vt 0.1991 0.5377 0.0000
vt 0.1991 0.4840 0.0000
vt 0.3712 0.4840 0.0000
vt 0.3712 0.5377 0.0000
vt 0.8917 0.3246 0.0000
vt 0.8872 0.3237 0.0000
vt 0.1991 0.6780 0.0000
vt 0.3712 0.6780 0.0000
vt 0.8872 0.3250 0.0000
vt 0.7198 0.5773 0.0000
vt 0.7565 0.6013 0.0000
vt 0.8295 0.2527 0.0000
vt 0.7637 0.2519 0.0000
vt 0.9422 0.6776 0.0000
vt 0.9783 0.6525 0.0000
vt 0.7025 0.8553 0.0000
vt 0.6451 0.9488 0.0000
vt 0.6406 0.9299 0.0000
vt 0.6618 0.8954 0.0000
vt 0.5896 0.9794 0.0000
vt 0.5071 0.9783 0.0000
vt 0.5211 0.9648 0.0000
vt 0.5760 0.9655 0.0000
vt 0.4525 0.9462 0.0000
vt 0.3976 0.8512 0.0000
vt 0.4372 0.8924 0.0000
vt 0.4575 0.9275 0.0000
vt 0.5110 0.6887 0.0000
vt 0.5934 0.6898 0.0000
vt 0.5790 0.7451 0.0000
vt 0.5240 0.7443 0.0000
vt 0.9766 0.8659 0.0000
vt 0.9407 0.8656 0.0000
vt 0.7591 0.7905 0.0000
vt 0.7232 0.7905 0.0000
vt 0.1991 0.7835 0.0000
vt 0.7925 0.7905 0.0000
vt 0.1991 0.9238 0.0000
vt 0.1116 0.9238 0.0000
vt 0.8288 0.3095 0.0000
vt 0.7630 0.3087 0.0000
vt 0.9080 0.7614 0.0000
vt 0.9077 0.8108 0.0000
vt 0.8205 0.7607 0.0000
vt 0.8201 0.8101 0.0000
vt 0.9073 0.8654 0.0000
vt 0.1116 0.5377 0.0000
vt 0.9759 0.9732 0.0000
vt 0.9400 0.9730 0.0000
vt 0.7591 0.8978 0.0000
vt 0.7232 0.8978 0.0000
vt 0.3712 0.7834 0.0000
vt 0.3712 0.9238 0.0000
vt 0.3712 0.9774 0.0000
vt 0.1991 0.9775 0.0000
vt 0.8857 0.6867 0.0000
vt 0.8857 0.7361 0.0000
vt 0.8801 0.7415 0.0000
vt 0.7926 0.7415 0.0000
vt 0.7980 0.7360 0.0000
vt 0.7980 0.7906 0.0000
vt 0.7925 0.7960 0.0000
vt 0.7591 0.7960 0.0000
vt 0.7646 0.7905 0.0000
vt 0.7646 0.8978 0.0000
vt 0.7591 0.9033 0.0000
vt 0.7232 0.9033 0.0000
vt 0.7177 0.8978 0.0000
vt 0.7177 0.7905 0.0000
vt 0.7177 0.7286 0.0000
vt 0.7176 0.6719 0.0000
vt 0.7143 0.5774 0.0000
vt 0.7228 0.5727 0.0000
vt 0.7596 0.5967 0.0000
vt 0.7619 0.6009 0.0000
vt 0.7627 0.6688 0.0000
vt 0.7953 0.6820 0.0000
vt 0.7928 0.6813 0.0000
vt 0.8803 0.6813 0.0000
vt 0.9830 0.7472 0.0000
vt 0.9826 0.8040 0.0000
vt 0.9821 0.8659 0.0000
vt 0.9813 0.9733 0.0000
vt 0.9758 0.9787 0.0000
vt 0.9399 0.9784 0.0000
vt 0.9345 0.9729 0.0000
vt 0.9352 0.8656 0.0000
vt 0.9407 0.8711 0.0000
vt 0.9072 0.8709 0.0000
vt 0.9018 0.8654 0.0000
vt 0.9022 0.8108 0.0000
vt 0.9076 0.8163 0.0000
vt 0.8201 0.8156 0.0000
vt 0.8147 0.8101 0.0000
vt 0.8151 0.7607 0.0000
vt 0.8206 0.7553 0.0000
vt 0.9081 0.7559 0.0000
vt 0.9059 0.7564 0.0000
vt 0.9394 0.7419 0.0000
vt 0.9362 0.7468 0.0000
vt 0.9367 0.6775 0.0000
vt 0.9391 0.6731 0.0000
vt 0.9752 0.6480 0.0000
vt 0.9838 0.6525 0.0000
vt 0.9519 0.5033 0.0000
vt 0.9546 0.4184 0.0000
vt 0.9586 0.4164 0.0000
vt 0.9557 0.5055 0.0000
vt 0.9522 0.5923 0.0000
vt 0.9518 0.5497 0.0000
vt 0.9567 0.5462 0.0000
vt 0.9571 0.5928 0.0000
vt 0.9752 0.1278 0.0000
vt 0.9830 0.0143 0.0000
vt 0.9878 0.0138 0.0000
vt 0.9835 0.1314 0.0000
vt 0.7103 0.0828 0.0000
vt 0.6555 0.0828 0.0000
vt 0.6555 0.0327 0.0000
vt 0.7103 0.0327 0.0000
vt 0.0953 0.0828 0.0000
vt 0.0405 0.0828 0.0000
vt 0.0405 0.0327 0.0000
vt 0.0953 0.0327 0.0000
vt 0.4352 0.0828 0.0000
vt 0.3155 0.0828 0.0000
vt 0.3155 0.0327 0.0000
vt 0.4352 0.0327 0.0000
vt 0.7235 0.4207 0.0000
vt 0.6703 0.4207 0.0000
vt 0.6703 0.3770 0.0000
vt 0.7235 0.3770 0.0000
vt 0.1562 0.0828 0.0000
vt 0.1562 0.0327 0.0000
vt 0.9575 0.3721 0.0000
vt 0.9689 0.2160 0.0000
vt 0.9606 0.3295 0.0000
vt 0.8784 0.5934 0.0000
vt 0.8830 0.5928 0.0000
vt 0.9099 0.0083 0.0000
vt 0.9143 0.0094 0.0000
vt 0.9622 0.3759 0.0000
vt 0.9776 0.2137 0.0000
vt 0.9655 0.3294 0.0000
vt 0.9653 0.3306 0.0000
vt 0.4550 0.3700 0.0000
vt 0.4550 0.4494 0.0000
vt 0.4218 0.4494 0.0000
vt 0.4218 0.3700 0.0000
vt 0.5946 0.0327 0.0000
vt 0.5946 0.0828 0.0000
vt 0.7103 0.1100 0.0000
vt 0.6555 0.1100 0.0000
vt 0.0953 0.1100 0.0000
vt 0.0405 0.1100 0.0000
vt 0.4352 0.1100 0.0000
vt 0.3155 0.1100 0.0000
vt 0.1562 0.1100 0.0000
vt 0.6616 0.4207 0.0000
vt 0.6616 0.3770 0.0000
vt 0.6703 0.3683 0.0000
vt 0.7235 0.3683 0.0000
vt 0.7322 0.3770 0.0000
vt 0.7322 0.4207 0.0000
vt 0.7235 0.4294 0.0000
vt 0.6703 0.4294 0.0000
vt 0.4152 0.3700 0.0000
vt 0.4152 0.4494 0.0000
vt 0.3972 0.4494 0.0000
vt 0.3972 0.3700 0.0000
vt 0.5946 0.1100 0.0000
vt 0.7103 0.1431 0.0000
vt 0.6555 0.1431 0.0000
vt 0.5229 0.6379 0.0000
vt 0.4751 0.6379 0.0000
vt 0.4751 0.6090 0.0000
vt 0.5229 0.6090 0.0000
vt 0.4352 0.1431 0.0000
vt 0.3155 0.1431 0.0000
vt 0.1562 0.1431 0.0000
vt 0.0953 0.1431 0.0000
vt 0.3905 0.3700 0.0000
vt 0.3905 0.4494 0.0000
vt 0.3685 0.4494 0.0000
vt 0.3685 0.3700 0.0000
vt 0.5946 0.1431 0.0000
vt 0.7103 0.1724 0.0000
vt 0.6555 0.1724 0.0000
vt 0.0953 0.1724 0.0000
vt 0.0405 0.1724 0.0000
vt 0.0405 0.1431 0.0000
vt 0.4352 0.1724 0.0000
vt 0.3155 0.1724 0.0000
vt 0.1562 0.1724 0.0000
vt 0.3619 0.3700 0.0000
vt 0.3619 0.4494 0.0000
vt 0.3425 0.4494 0.0000
vt 0.3425 0.3700 0.0000
vt 0.5946 0.1724 0.0000
vt 0.7103 0.2032 0.0000
vt 0.6555 0.2032 0.0000
vt 0.5583 0.4123 0.0000
vt 0.5105 0.4123 0.0000
vt 0.5105 0.3854 0.0000
vt 0.5583 0.3854 0.0000
vt 0.4352 0.2032 0.0000
vt 0.3155 0.2032 0.0000
vt 0.6115 0.4123 0.0000
vt 0.6115 0.3854 0.0000
vt 0.1562 0.2032 0.0000
vt 0.3358 0.3700 0.0000
vt 0.3358 0.4494 0.0000
vt 0.3153 0.4494 0.0000
vt 0.3153 0.3700 0.0000
vt 0.5946 0.2032 0.0000
vt 0.7103 0.2288 0.0000
vt 0.6555 0.2288 0.0000
vt 0.0953 0.2288 0.0000
vt 0.0405 0.2288 0.0000
vt 0.0405 0.2032 0.0000
vt 0.0953 0.2032 0.0000
vt 0.4352 0.2288 0.0000
vt 0.3155 0.2288 0.0000
vt 0.1562 0.2288 0.0000
vt 0.3087 0.3700 0.0000
vt 0.3087 0.4494 0.0000
vt 0.2917 0.4494 0.0000
vt 0.2917 0.3700 0.0000
vt 0.5946 0.2288 0.0000
vt 0.7103 0.2613 0.0000
vt 0.4945 0.5326 0.0000
vt 0.4466 0.5326 0.0000
vt 0.4466 0.5043 0.0000
vt 0.4945 0.5043 0.0000
vt 0.3155 0.2613 0.0000
vt 0.5477 0.5326 0.0000
vt 0.5477 0.5043 0.0000
vt 0.6868 0.5326 0.0000
vt 0.6868 0.5043 0.0000
vt 0.4379 0.5326 0.0000
vt 0.4379 0.5043 0.0000
vt 0.2186 0.3832 0.0000
vt 0.2186 0.4362 0.0000
vt 0.7203 0.2613 0.0000
vt 0.7203 0.3007 0.0000
vt 0.2850 0.4494 0.0000
vt 0.2850 0.3700 0.0000
vt 0.7203 0.0327 0.0000
vt 0.7203 0.0828 0.0000
vt 0.4617 0.3700 0.0000
vt 0.4617 0.4494 0.0000
vt 0.0305 0.0828 0.0000
vt 0.0305 0.0327 0.0000
vt 0.7203 0.1100 0.0000
vt 0.7203 0.1431 0.0000
vt 0.4664 0.6379 0.0000
vt 0.4664 0.6090 0.0000
vt 0.7203 0.1724 0.0000
vt 0.7203 0.2032 0.0000
vt 0.5018 0.4123 0.0000
vt 0.5018 0.3854 0.0000
vt 0.3155 0.3007 0.0000
vt 0.1562 0.3007 0.0000
vt 0.0953 0.3007 0.0000
vt 0.0953 0.2613 0.0000
vt 0.1562 0.2613 0.0000
vt 0.0405 0.2613 0.0000
vt 0.0305 0.2613 0.0000
vt 0.0305 0.3007 0.0000
vt 0.7203 0.2288 0.0000
vt 0.5316 0.6090 0.0000
vt 0.5316 0.6379 0.0000
vt 0.5229 0.6466 0.0000
vt 0.4751 0.6466 0.0000
vt 0.4664 0.6466 0.0000
vt 0.4577 0.6379 0.0000
vt 0.4577 0.6090 0.0000
vt 0.4664 0.6003 0.0000
vt 0.4751 0.6003 0.0000
vt 0.5229 0.6003 0.0000
vt 0.6202 0.3854 0.0000
vt 0.6202 0.4123 0.0000
vt 0.6115 0.4210 0.0000
vt 0.5583 0.4210 0.0000
vt 0.5105 0.4210 0.0000
vt 0.5018 0.4210 0.0000
vt 0.4931 0.4123 0.0000
vt 0.4931 0.3854 0.0000
vt 0.5018 0.3767 0.0000
vt 0.5105 0.3767 0.0000
vt 0.5583 0.3767 0.0000
vt 0.6115 0.3767 0.0000
vt 0.6955 0.5043 0.0000
vt 0.6955 0.5326 0.0000
vt 0.6868 0.5413 0.0000
vt 0.5477 0.5413 0.0000
vt 0.4945 0.5413 0.0000
vt 0.4466 0.5413 0.0000
vt 0.4379 0.5413 0.0000
vt 0.4292 0.5326 0.0000
vt 0.4292 0.5043 0.0000
vt 0.4379 0.4956 0.0000
vt 0.4466 0.4956 0.0000
vt 0.4945 0.4956 0.0000
vt 0.5477 0.4956 0.0000
vt 0.6868 0.4956 0.0000
vt 0.7004 0.3289 0.0000
vt 0.6555 0.3289 0.0000
vt 0.2956 0.3289 0.0000
vt 0.1562 0.3289 0.0000
vt 0.4153 0.3289 0.0000
vt 0.3355 0.3289 0.0000
vt 0.5946 0.3289 0.0000
vt 0.0953 0.3289 0.0000
vt 0.4552 0.3289 0.0000
vt 0.0504 0.3289 0.0000
# 376 texture coords

g Box001
usemtl 01___Default
s 2
f 1/1/1 2/2/1 3/3/1 4/4/1 
s 4
f 5/5/2 6/6/2 7/7/2 8/8/2 
s 8
f 9/9/3 10/10/3 11/11/3 12/12/3 
s 16
f 13/13/4 14/14/4 15/15/4 16/16/4 
s 32
f 17/17/5 18/18/5 19/19/5 20/20/5 
s 64
f 21/21/6 22/22/6 23/23/7 24/24/7 
s 2
f 25/25/1 26/26/1 27/27/1 28/28/1 
s 4
f 29/29/2 30/30/2 6/6/2 5/5/2 
s 8
f 31/31/8 32/32/8 33/33/8 34/34/8 
s 32
f 35/35/5 36/36/5 18/18/5 17/17/5 
s 2
f 37/37/1 38/38/1 26/26/1 25/25/1 
s 4
f 39/39/2 40/40/2 30/30/2 29/29/2 
s 8
f 41/41/9 42/42/9 43/43/9 44/44/9 
s 2
f 45/45/10 46/46/11 47/47/12 48/48/13 
s 4
f 49/49/14 50/50/15 51/51/16 52/52/17 
s 16
f 53/53/18 54/54/18 55/55/19 56/56/19 
s 64
f 57/57/6 58/58/6 51/59/20 48/60/20 
s 2
f 59/61/1 60/62/1 47/63/12 61/64/11 
s 4
f 62/65/14 49/49/14 52/52/17 63/66/14 
s 2
f 64/67/1 59/61/1 61/64/11 56/68/21 
s 4
f 54/54/22 62/65/14 63/69/14 55/55/23 
s off
f 5/5/2 8/8/2 65/70/2 66/71/2 
f 67/72/6 68/73/6 12/12/6 11/11/6 
f 4/4/1 3/3/1 69/74/1 70/75/1 
f 34/34/4 33/33/4 10/10/4 9/9/4 
f 31/76/24 16/77/24 71/78/24 72/79/24 
f 16/80/24 15/81/24 73/82/24 71/83/24 
f 15/84/24 32/85/24 74/86/24 73/87/24 
f 32/88/24 31/89/24 72/90/24 74/91/24 
f 72/79/1 71/78/1 41/41/1 44/44/1 
f 71/83/4 73/82/4 42/42/4 41/41/4 
f 73/87/2 74/86/2 43/43/2 42/42/2 
f 74/91/6 72/90/6 44/44/6 43/43/6 
s 2
f 75/92/1 76/93/1 2/2/1 1/1/1 
s 4
f 77/94/2 78/95/2 7/7/2 6/6/2 
s 16
f 64/67/4 79/96/4 14/14/4 13/13/4 
s 4
f 30/30/2 80/97/2 77/94/2 6/6/2 
f 79/96/2 81/98/2 82/99/2 14/14/2 
s 64
f 68/73/6 67/72/6 83/100/6 84/101/6 
s 2
f 85/102/1 3/3/1 2/2/1 86/103/1 
f 87/104/1 85/102/1 86/103/1 88/105/1 
s 64
f 84/101/6 83/100/6 58/58/6 57/57/6 
s 2
f 86/103/1 2/2/1 76/93/1 89/106/1 
f 13/13/1 90/107/1 59/61/1 64/67/1 
f 91/108/1 92/109/1 76/93/1 75/92/1 
s 4
f 93/110/2 94/111/2 78/95/2 77/94/2 
s 16
f 56/68/19 55/112/19 79/96/4 64/67/4 
s 4
f 81/98/2 63/113/14 52/114/17 95/115/2 
f 55/112/23 63/113/14 81/98/2 79/96/2 
s off
f 15/116/4 14/117/4 40/40/4 39/39/4 
f 14/118/5 82/119/5 30/30/5 40/40/5 
f 82/120/4 81/121/4 80/97/4 30/30/4 
f 81/122/25 95/123/25 77/94/25 80/97/25 
f 95/124/4 52/125/4 93/110/4 77/94/4 
f 52/126/5 51/127/5 94/111/5 93/110/5 
f 51/128/6 58/129/6 78/95/6 94/111/6 
f 58/129/6 83/130/6 7/7/6 78/95/6 
f 83/130/6 67/131/6 8/8/6 7/7/6 
f 67/131/6 11/132/6 65/70/6 8/8/6 
f 11/133/3 10/134/3 66/71/3 65/70/3 
f 10/135/4 33/136/4 5/5/4 66/71/4 
f 33/136/8 32/137/8 29/29/8 5/5/8 
f 32/138/24 15/139/24 39/39/24 29/29/24 
f 68/140/6 84/141/6 1/1/6 4/4/6 
f 84/141/6 57/142/6 75/92/6 1/1/6 
f 57/142/6 48/143/6 91/108/6 75/92/6 
f 48/144/5 47/145/5 92/109/5 91/108/5 
f 47/146/4 60/147/4 76/93/4 92/109/4 
f 60/148/25 59/149/25 89/106/25 76/93/25 
f 59/150/4 90/151/4 86/103/4 89/106/4 
f 90/152/5 13/153/5 88/105/5 86/103/5 
f 13/154/4 16/155/4 87/104/4 88/105/4 
f 16/156/24 31/157/24 85/102/24 87/104/24 
f 31/158/8 34/159/8 3/3/8 85/102/8 
f 34/160/4 9/161/4 69/74/4 3/3/4 
f 9/162/3 12/163/3 70/75/3 69/74/3 
f 12/164/6 68/140/6 4/4/6 70/75/6 
s 64
f 96/165/26 97/166/26 98/167/27 99/168/27 
s 2
f 100/169/28 101/170/28 102/171/28 103/172/28 
f 104/173/29 100/174/28 103/175/28 105/176/30 
f 106/177/1 107/178/1 102/179/28 99/180/31 
s 4
f 108/181/2 109/182/2 98/183/32 110/184/33 
s 16
f 111/185/4 112/186/4 113/187/34 105/188/34 
s 4
f 114/189/2 115/190/2 116/191/2 117/192/2 
f 112/186/2 118/193/2 119/194/33 113/187/35 
s 2
f 96/165/36 101/170/28 46/46/11 45/45/10 
s 4
f 120/195/37 97/166/38 50/50/15 49/49/14 
s 16
f 104/173/39 121/196/39 54/54/18 53/53/18 
s 4
f 122/197/37 120/195/37 49/49/14 62/65/14 
f 121/196/40 122/197/37 62/65/14 54/54/22 
s 64
f 48/48/20 51/51/20 50/50/41 45/45/41 
s 2
f 61/198/11 47/47/12 46/46/11 123/199/11 
f 56/56/21 61/200/11 123/201/11 53/53/42 
s 64
f 45/45/41 50/50/41 97/166/26 96/165/26 
s 2
f 123/199/11 46/46/11 101/170/28 100/169/28 
f 53/53/42 123/201/11 100/174/28 104/173/29 
f 99/168/31 102/171/28 101/170/28 96/165/36 
s 4
f 110/202/33 98/167/32 97/166/38 120/195/37 
s 16
f 105/176/34 113/203/34 121/196/39 104/173/39 
s 4
f 119/204/33 110/202/33 120/195/37 122/197/37 
f 113/203/35 119/205/33 122/197/37 121/196/40 
s 64
f 124/206/6 125/207/6 126/208/6 127/209/6 
s 2
f 103/210/28 102/179/28 107/178/1 128/211/1 
f 105/188/30 103/210/28 128/211/1 111/185/1 
f 129/212/1 130/213/1 107/178/1 106/177/1 
s 4
f 131/214/2 132/215/2 109/182/2 108/181/2 
s 16
f 133/216/4 134/217/4 112/186/4 111/185/4 
s 4
f 135/218/2 131/214/2 108/181/2 118/193/2 
f 134/217/2 135/218/2 118/193/2 112/186/2 
s off
f 108/219/6 110/220/6 116/191/6 115/190/6 
f 110/221/24 119/222/24 117/192/24 116/191/24 
f 119/223/4 118/224/4 114/189/4 117/192/4 
f 118/225/5 108/226/5 115/190/5 114/189/5 
s 64
f 106/227/6 109/228/6 132/229/6 129/230/6 
s 2
f 128/211/1 107/178/1 130/213/1 136/231/1 
f 111/185/1 128/211/1 136/231/1 133/216/1 
f 137/232/1 138/233/1 130/213/1 129/212/1 
s 4
f 139/234/2 140/235/2 141/236/2 142/237/2 
s 16
f 143/238/4 144/239/4 134/217/4 133/216/4 
s 4
f 145/240/2 146/241/2 131/214/2 135/218/2 
f 144/239/2 145/240/2 135/218/2 134/217/2 
s 64
f 147/242/6 148/243/6 149/244/6 150/245/6 
s 2
f 136/231/1 130/213/1 138/233/1 151/246/1 
f 133/216/1 136/231/1 151/246/1 143/238/1 
f 152/247/1 153/248/1 138/233/1 137/232/1 
s 4
f 154/249/2 155/250/2 156/251/2 146/241/2 
s 16
f 157/252/4 158/253/4 144/239/4 143/238/4 
s 4
f 159/254/2 154/249/2 146/241/2 145/240/2 
f 158/253/2 159/254/2 145/240/2 144/239/2 
s 64
f 137/255/6 156/256/6 155/257/6 152/258/6 
s 2
f 151/246/1 138/233/1 153/248/1 160/259/1 
f 143/238/1 151/246/1 160/259/1 157/252/1 
f 161/260/1 162/261/1 153/248/1 152/247/1 
s 4
f 163/262/2 164/263/2 165/264/2 166/265/2 
s 16
f 167/266/4 168/267/4 158/253/4 157/252/4 
s 4
f 169/268/2 163/262/2 166/265/2 170/269/2 
f 168/267/2 171/270/2 159/254/2 158/253/2 
s 64
f 172/271/6 173/272/6 174/273/6 175/274/6 
s 2
f 160/259/1 153/248/1 162/261/1 176/275/1 
f 157/252/1 160/259/1 176/275/1 167/266/1 
f 177/276/1 178/277/1 162/261/1 161/260/1 
s 4
f 179/278/2 180/279/2 181/280/2 182/281/2 
s 16
f 183/282/4 184/283/4 168/267/4 167/266/4 
s 4
f 185/284/2 179/278/2 182/281/2 171/270/2 
f 184/283/2 185/284/2 171/270/2 168/267/2 
s 64
f 161/285/6 181/286/6 180/287/6 177/288/6 
s 2
f 176/275/1 162/261/1 178/277/1 186/289/1 
f 167/266/1 176/275/1 186/289/1 183/282/1 
f 187/290/1 27/27/1 178/277/1 177/276/1 
s 4
f 188/291/2 189/292/2 190/293/2 191/294/2 
s 16
f 38/38/4 192/295/4 184/283/4 183/282/4 
s 4
f 193/296/2 188/291/2 191/294/2 194/297/2 
f 195/298/2 193/296/2 194/297/2 196/299/2 
s off
f 189/292/2 197/300/2 198/301/2 190/293/2 
s 32
f 36/36/5 35/35/5 199/302/5 200/303/5 
s 2
f 187/290/1 21/304/1 24/305/1 27/27/1 
f 28/28/1 27/27/1 24/305/1 
s off
f 177/288/24 180/287/24 201/306/24 202/307/24 
f 106/177/1 99/180/1 124/308/1 127/309/1 
f 99/310/24 98/311/24 125/207/24 124/206/24 
f 98/183/2 109/182/2 126/312/2 125/313/2 
f 109/228/5 106/227/5 127/209/5 126/208/5 
f 137/232/1 129/212/1 147/314/1 150/315/1 
f 129/230/24 132/229/24 148/243/24 147/242/24 
f 141/236/2 140/235/2 203/316/2 204/317/2 
f 156/256/5 137/255/5 150/245/5 149/244/5 
f 161/260/1 152/247/1 172/318/1 175/319/1 
f 152/258/24 155/257/24 173/272/24 172/271/24 
f 165/264/2 164/263/2 205/320/2 206/321/2 
f 181/286/5 161/285/5 175/274/5 174/273/5 
s 64
f 202/307/6 201/306/6 22/22/6 21/21/6 
s 2
f 186/289/1 178/277/1 27/27/1 26/26/1 
f 183/282/1 186/289/1 26/26/1 38/38/1 
s 16
f 37/37/4 207/322/4 192/295/4 38/38/4 
s 4
f 208/323/2 209/324/2 210/325/2 211/326/2 
f 207/322/2 208/323/2 211/326/2 192/295/2 
f 212/327/2 210/325/2 209/324/2 22/328/2 
f 209/324/2 23/329/2 22/328/2 
s off
f 177/276/1 202/330/1 21/304/1 187/290/1 
f 131/331/4 146/332/4 139/234/4 142/237/4 
f 146/333/5 156/334/5 140/235/5 139/234/5 
f 156/334/5 149/335/5 203/316/5 140/235/5 
f 149/336/6 148/337/6 204/317/6 203/316/6 
f 148/338/24 132/339/24 141/236/24 204/317/24 
f 132/339/24 131/340/24 142/237/24 141/236/24 
f 159/341/4 171/342/4 169/268/4 170/269/4 
f 171/343/5 182/344/5 163/262/5 169/268/5 
f 182/344/5 181/345/5 164/263/5 163/262/5 
f 181/345/5 174/346/5 205/320/5 164/263/5 
f 174/347/6 173/348/6 206/321/6 205/320/6 
f 173/349/24 155/350/24 165/264/24 206/321/24 
f 155/350/24 154/351/24 166/265/24 165/264/24 
f 154/351/24 159/352/24 170/269/24 166/265/24 
f 184/353/4 192/354/4 195/298/4 196/299/4 
f 192/355/5 211/356/5 193/296/5 195/298/5 
f 211/356/5 210/357/5 188/291/5 193/296/5 
f 210/357/5 212/358/5 189/292/5 188/291/5 
f 212/358/5 22/359/5 197/300/5 189/292/5 
f 22/360/6 201/361/6 198/301/6 197/300/6 
f 201/362/24 180/363/24 190/293/24 198/301/24 
f 180/363/24 179/364/24 191/294/24 190/293/24 
f 179/364/24 185/365/24 194/297/24 191/294/24 
f 185/365/24 184/366/24 196/299/24 194/297/24 
f 24/305/43 199/367/43 35/368/43 28/28/43 
f 207/322/44 19/369/44 18/370/44 208/323/44 
f 37/37/45 20/371/45 19/372/45 207/322/45 
f 28/28/43 35/368/43 17/373/43 25/25/43 
f 208/323/44 18/370/44 36/374/44 209/324/44 
f 25/25/46 17/373/46 20/375/46 37/37/46 
f 23/23/47 200/303/47 199/302/47 24/24/47 
f 209/324/44 36/374/44 200/376/44 23/329/44 
# 209 polygons - 2 triangles

